<?xml version="1.0" standalone="no"?>
<!DOCTYPE svg PUBLIC "-//W3C//DTD SVG 20010904//EN"
 "http://www.w3.org/TR/2001/REC-SVG-20010904/DTD/svg10.dtd">
<svg version="1.0" xmlns="http://www.w3.org/2000/svg"
 width="300.000000pt" height="131.000000pt" viewBox="0 0 300.000000 131.000000"
 preserveAspectRatio="xMidYMid meet">
<metadata>
Created by potrace 1.10, written by Peter Selinger 2001-2011
</metadata>
<g transform="translate(0.000000,131.000000) scale(0.100000,-0.100000)"
fill="#000000" stroke="none">
<path d="M1924 1284 c-9 -14 -31 -32 -48 -41 -36 -18 -123 -96 -148 -133 -13
-18 -18 -45 -18 -93 0 -73 13 -114 62 -190 25 -39 29 -54 25 -85 -6 -32 -37
-71 -59 -72 -5 0 -8 28 -8 63 0 43 -6 75 -20 102 -11 22 -17 48 -14 58 4 12
-2 28 -17 43 -32 34 -116 35 -148 0 -16 -17 -20 -30 -16 -48 4 -16 1 -29 -9
-37 -13 -11 -21 -9 -47 13 -27 23 -40 26 -103 26 -50 0 -79 -5 -95 -16 -22
-16 -26 -16 -51 -1 -21 13 -50 16 -128 14 -91 -2 -103 -4 -126 -26 l-26 -24
-24 26 c-14 15 -36 27 -49 27 -13 0 -35 8 -48 18 -40 31 -56 32 -93 7 -19 -13
-61 -27 -95 -32 -59 -9 -60 -9 -66 16 -9 36 -34 61 -61 61 -26 0 -54 -34 -54
-67 0 -33 -9 -29 -55 23 -47 54 -86 62 -117 24 -15 -19 -18 -42 -18 -154 0
-119 2 -134 20 -154 38 -41 83 -18 96 47 l7 33 46 -51 c44 -50 68 -61 102 -47
10 5 19 -1 28 -18 21 -38 55 -49 84 -25 22 17 26 30 32 104 4 47 11 85 16 85
5 0 9 -11 9 -25 0 -57 40 -115 89 -130 14 -4 40 -23 58 -42 27 -30 37 -34 60
-28 38 9 61 32 90 88 l24 48 35 -30 c46 -41 78 -48 135 -28 60 22 59 22 59 -8
0 -26 40 -75 61 -75 6 0 26 15 43 33 17 18 46 38 64 45 18 6 42 18 53 26 19
13 24 12 57 -11 31 -20 44 -23 80 -18 23 3 51 4 61 0 31 -9 13 -44 -33 -66
-26 -12 -52 -36 -70 -62 -24 -37 -27 -49 -23 -100 6 -69 40 -121 121 -184 56
-45 115 -18 132 60 13 61 50 102 124 136 39 18 77 31 85 27 9 -3 15 -19 15
-41 0 -32 -5 -38 -67 -79 -89 -57 -163 -137 -163 -175 0 -15 9 -36 19 -45 11
-10 25 -31 31 -47 7 -17 20 -29 30 -29 17 0 17 2 3 33 -9 17 -27 44 -40 59
-28 29 -24 72 5 66 11 -2 23 8 32 27 8 16 44 49 80 73 89 58 98 67 106 97 9
38 -20 94 -76 150 l-49 48 -30 -25 c-26 -22 -72 -43 -203 -90 -54 -20 -58 -78
-11 -170 27 -55 42 -62 35 -17 -13 90 49 201 130 234 56 22 138 7 138 -25 0
-5 -32 -20 -70 -35 -86 -33 -130 -81 -157 -172 -14 -51 -22 -63 -38 -63 -25 0
-130 104 -144 143 -25 65 -8 129 43 167 24 18 100 40 138 40 29 0 111 24 140
40 10 6 24 10 31 10 7 0 26 14 43 32 16 18 21 26 11 19 -11 -9 -32 -12 -61 -8
-34 5 -55 1 -95 -18 -28 -14 -53 -25 -56 -25 -3 0 -15 -9 -27 -20 -26 -24 -38
-25 -38 -6 0 21 48 74 90 101 19 12 36 31 37 41 1 11 5 31 8 46 5 20 1 35 -19
61 -14 19 -26 38 -26 42 0 5 -6 16 -13 24 -21 25 -42 102 -42 153 0 42 5 52
45 93 57 59 123 105 149 105 17 0 21 6 21 31 0 24 4 30 18 27 10 -2 16 -11 14
-22 -3 -13 1 -17 12 -13 29 11 29 -15 0 -39 -20 -17 -39 -23 -61 -21 -18 2
-33 1 -33 -3 0 -3 -23 -30 -50 -60 -28 -30 -53 -65 -56 -76 -10 -39 52 -134
87 -134 10 0 32 -12 51 -27 l33 -28 -18 27 c-9 15 -17 29 -17 31 0 2 41 5 90
6 99 2 105 4 208 54 109 54 137 61 164 43 12 -9 31 -16 41 -16 12 0 17 -6 15
-17 -2 -14 -11 -17 -36 -15 -24 3 -32 0 -32 -12 0 -25 -17 -19 -24 9 l-6 24
-74 -49 c-40 -28 -80 -50 -89 -50 -9 0 -18 -4 -21 -8 -8 -13 -112 -36 -130
-29 -14 5 -15 3 -6 -13 5 -10 10 -29 10 -42 0 -31 -47 -103 -77 -119 -13 -7
-23 -16 -23 -21 0 -5 9 -4 19 2 28 15 29 14 37 -25 3 -19 12 -39 20 -46 8 -6
14 -17 14 -23 0 -6 14 -27 31 -46 44 -50 60 -85 66 -146 5 -46 2 -59 -20 -92
-24 -37 -46 -51 -194 -121 -43 -20 -47 -34 -22 -76 12 -19 18 -35 14 -35 -4 0
-2 -7 5 -15 7 -8 24 -15 37 -15 22 0 24 -2 13 -15 -10 -13 -9 -15 8 -15 27 0
20 24 -15 58 -21 21 -48 72 -41 77 2 1 43 21 92 45 65 32 96 53 117 82 54 75
48 179 -15 262 -63 82 -74 102 -81 139 -9 45 7 50 25 7 21 -50 64 -69 145 -63
39 3 76 10 83 16 9 7 16 7 24 -1 19 -19 63 -14 83 8 l18 20 22 -20 c23 -22 65
-26 82 -9 9 9 20 8 45 -4 49 -23 154 -16 182 12 18 19 21 33 21 104 0 63 -4
88 -18 109 -12 17 -16 35 -12 48 5 15 0 29 -16 46 -18 20 -32 24 -76 24 -60 0
-96 -25 -93 -63 1 -12 2 -28 1 -34 -2 -20 -36 -15 -56 7 -15 17 -31 20 -93 20
-56 0 -80 -4 -93 -16 -20 -18 -49 -13 -49 8 0 23 69 60 99 53 36 -8 108 21
116 46 8 23 -8 45 -46 65 -48 24 -93 17 -197 -32 -75 -36 -112 -47 -164 -51
l-68 -6 0 54 c-1 44 -6 61 -30 93 -28 37 -31 56 -8 56 6 0 26 11 45 26 38 29
43 66 14 102 -26 30 -66 29 -87 -4z m3 -181 c4 -10 13 -24 20 -31 7 -7 13 -36
13 -62 0 -41 -4 -52 -24 -65 -22 -14 -27 -14 -60 2 -25 12 -35 23 -32 35 2 9
-2 19 -10 22 -8 3 -14 20 -14 40 0 25 7 40 26 55 33 26 72 27 81 4z m-1566
-215 c17 -24 49 -72 72 -107 l42 -65 3 107 c2 99 4 107 22 107 19 0 20 -7 20
-145 0 -144 0 -145 -22 -145 -17 1 -36 21 -76 83 -52 79 -87 127 -94 127 -1 0
-2 -47 0 -105 3 -100 2 -105 -17 -105 -20 0 -21 5 -21 145 0 138 1 145 20 145
12 0 32 -17 51 -42z m1309 17 c0 -12 -14 -15 -65 -15 -51 0 -65 3 -65 15 0 12
14 15 65 15 51 0 65 -3 65 -15z m1030 0 c0 -12 -14 -15 -65 -15 -51 0 -65 3
-65 15 0 12 14 15 65 15 51 0 65 -3 65 -15z m-1920 -31 c0 -20 4 -25 22 -22
15 2 24 -3 26 -14 3 -14 -3 -18 -22 -18 -25 0 -26 -1 -26 -70 0 -68 1 -70 25
-70 19 0 25 -5 25 -21 0 -19 -4 -21 -37 -16 -20 4 -41 11 -47 17 -6 6 -12 43
-14 82 -3 43 -10 77 -18 86 -12 11 -14 11 -14 -2 0 -11 -9 -16 -29 -16 -40 0
-46 -13 -42 -92 2 -50 -1 -68 -10 -68 -10 0 -10 -3 -1 -12 21 -21 14 -48 -12
-48 l-24 0 -1 130 c-1 124 -1 130 19 130 11 0 20 -5 20 -11 0 -8 5 -7 15 1 9
7 34 13 55 13 35 0 40 3 40 24 0 18 5 23 25 23 20 0 25 -5 25 -26z m105 -41
c3 -16 12 -41 19 -58 7 -16 18 -41 23 -55 9 -23 11 -21 27 30 31 97 38 110 57
110 20 0 26 -28 11 -45 -5 -6 -19 -39 -32 -75 -53 -154 -65 -169 -122 -170
-27 0 -23 38 3 42 44 6 45 30 6 124 -42 101 -46 124 -18 124 12 0 21 -10 26
-27z m313 -3 c97 -96 -22 -252 -127 -165 -28 24 -30 30 -28 86 2 53 6 64 30
85 40 34 87 32 125 -6z m122 15 c0 -12 4 -12 28 2 64 37 127 -22 119 -111 -3
-38 -11 -55 -31 -73 -32 -27 -72 -30 -98 -6 -17 15 -18 14 -18 -35 0 -45 -3
-52 -20 -52 -19 0 -20 7 -20 145 0 138 1 145 20 145 11 0 20 -7 20 -15z m352
-15 c14 -17 18 -40 18 -106 0 -77 -2 -84 -20 -84 -11 0 -20 6 -20 14 0 13 -4
13 -27 0 -56 -28 -113 -6 -113 45 0 38 30 62 88 70 46 6 49 7 41 29 -13 36
-39 39 -65 9 -27 -32 -54 -35 -54 -8 0 55 114 78 152 31z m563 5 c23 -22 25
-32 25 -110 0 -77 -2 -85 -19 -85 -11 0 -21 6 -24 13 -3 10 -9 10 -26 0 -52
-31 -111 0 -111 59 0 24 6 32 35 44 19 7 48 14 64 14 33 0 44 10 35 33 -13 34
-68 31 -79 -4 -8 -24 -45 -26 -45 -1 1 59 98 84 145 37z m115 10 c0 -19 9 -19
34 0 27 21 58 19 84 -5 19 -18 22 -31 22 -110 0 -83 -2 -90 -20 -90 -17 0 -19
8 -22 81 -3 93 -16 112 -62 91 -25 -11 -26 -15 -26 -92 0 -77 -1 -81 -21 -78
-19 3 -21 9 -20 106 0 56 0 104 1 107 1 13 30 3 30 -10z m349 -9 c12 -12 17
-40 19 -106 l4 -90 -25 0 c-14 0 -27 6 -30 13 -4 10 -7 10 -18 0 -19 -19 -73
-16 -92 5 -47 53 -7 112 78 112 30 0 35 3 35 24 0 16 -7 27 -20 31 -24 8 -60
-11 -60 -30 0 -8 -9 -15 -20 -15 -33 0 -25 46 12 66 26 14 98 8 117 -10z"/>
<path d="M1120 822 c-37 -11 -53 -78 -30 -123 13 -23 62 -26 80 -4 14 16 17
85 6 104 -11 17 -39 29 -56 23z"/>
<path d="M1336 801 c-12 -13 -16 -32 -14 -62 3 -38 7 -45 31 -53 42 -15 61 2
65 58 2 27 -2 54 -9 62 -16 20 -53 17 -73 -5z"/>
<path d="M1590 737 c-38 -13 -47 -42 -19 -60 25 -15 69 16 69 48 0 28 -1 28
-50 12z"/>
<path d="M2160 737 c-40 -14 -50 -41 -20 -57 28 -15 82 16 78 44 -4 25 -15 28
-58 13z"/>
<path d="M2620 737 c-38 -13 -47 -42 -19 -60 23 -14 69 18 69 49 0 27 -2 27
-50 11z"/>
<path d="M1917 762 c-32 -33 -36 -54 -6 -26 20 18 44 54 36 54 -2 0 -15 -13
-30 -28z"/>
<path d="M2852 147 c-28 -30 -28 -48 1 -75 30 -28 48 -28 75 1 28 30 28 48 -1
75 -30 28 -48 28 -75 -1z m73 -27 c22 0 18 -17 -5 -23 -11 -3 -20 -12 -20 -21
0 -9 -4 -16 -10 -16 -5 0 -10 7 -10 16 0 9 -9 18 -20 21 -18 5 -18 7 8 33 25
25 28 26 34 9 4 -11 14 -19 23 -19z"/>
</g>
</svg>
